<?xml version="1.0" encoding="utf-8"?>
<!-- Generator: Adobe Illustrator 24.1.1, SVG Export Plug-In . SVG Version: 6.00 Build 0)  -->
<svg version="1.1" xmlns="http://www.w3.org/2000/svg" xmlns:xlink="http://www.w3.org/1999/xlink" x="0px" y="0px"
	 viewBox="0 0 819.2 750" style="enable-background:new 0 0 819.2 750;" xml:space="preserve">
<style type="text/css">
	.st0{clip-path:url(#SVGID_2_);fill:url(#SVGID_3_);}
	.st1{clip-path:url(#SVGID_5_);}
	.st2{clip-path:url(#SVGID_7_);fill:url(#SVGID_8_);}
	.st3{clip-path:url(#SVGID_7_);fill:url(#SVGID_9_);}
	.st4{opacity:0.61;clip-path:url(#SVGID_7_);fill:url(#SVGID_10_);}
	.st5{clip-path:url(#SVGID_7_);}
	.st6{fill:url(#SVGID_11_);}
	.st7{fill:url(#SVGID_12_);}
	.st8{opacity:0.83;}
	.st9{fill:url(#SVGID_13_);}
	.st10{fill:url(#SVGID_14_);}
	.st11{fill:url(#SVGID_15_);}
	.st12{opacity:0.44;}
	.st13{fill:url(#SVGID_16_);}
	.st14{fill:url(#SVGID_17_);}
	.st15{opacity:0.36;}
	.st16{fill:url(#SVGID_18_);}
</style>
<g id="BACKGROUND">
	<g>
		<defs>
			
				<rect id="SVGID_1_" x="34.6" y="-34.6" transform="matrix(-1.836970e-16 1 -1 -1.836970e-16 784.5891 -34.5892)" width="750" height="819.2"/>
		</defs>
		<use xlink:href="#SVGID_1_"  style="overflow:visible;fill:#00399E;"/>
		<clipPath id="SVGID_2_">
			<use xlink:href="#SVGID_1_"  style="overflow:visible;"/>
		</clipPath>
		
			<radialGradient id="SVGID_3_" cx="356.2796" cy="376.2848" r="930.2689" gradientTransform="matrix(1.003204e-16 1 -1.6384 6.123234e-17 1546.9001 -194.1783)" gradientUnits="userSpaceOnUse">
			<stop  offset="0" style="stop-color:#1D7BFF"/>
			<stop  offset="1" style="stop-color:#0044A5"/>
		</radialGradient>
		<polygon class="st0" points="0,750 0,0 819.2,0 819.2,750 		"/>
	</g>
</g>
<g id="OBJECTS">
	<g>
		<defs>
			<rect id="SVGID_4_" y="0" width="819.2" height="750"/>
		</defs>
		<clipPath id="SVGID_5_">
			<use xlink:href="#SVGID_4_"  style="overflow:visible;"/>
		</clipPath>
		<g class="st1">
			<defs>
				
					<rect id="SVGID_6_" x="-208.5" y="-281.1" transform="matrix(6.123234e-17 -1 1 6.123234e-17 278.7882 541.5151)" width="1237.3" height="824.8"/>
			</defs>
			<clipPath id="SVGID_7_">
				<use xlink:href="#SVGID_6_"  style="overflow:visible;"/>
			</clipPath>
			
				<linearGradient id="SVGID_8_" gradientUnits="userSpaceOnUse" x1="-18.76" y1="125.4313" x2="671.6385" y2="854.0081" gradientTransform="matrix(-6.123234e-17 -1 -1 6.123234e-17 944.1783 944.1783)">
				<stop  offset="0" style="stop-color:#FFFFFF"/>
				<stop  offset="9.756440e-02" style="stop-color:#FFFFFF;stop-opacity:0.9024"/>
				<stop  offset="1" style="stop-color:#FFFFFF;stop-opacity:0"/>
			</linearGradient>
			<polygon class="st2" points="822.6,750 -7,-79.6 -7,418.3 319.6,750 			"/>
			
				<linearGradient id="SVGID_9_" gradientUnits="userSpaceOnUse" x1="996.1573" y1="-413.6661" x2="1686.5559" y2="314.9106" gradientTransform="matrix(-6.123234e-17 -1 -1 6.123234e-17 944.1783 944.1783)">
				<stop  offset="0" style="stop-color:#FFFFFF"/>
				<stop  offset="1" style="stop-color:#FFFFFF;stop-opacity:0"/>
			</linearGradient>
			<polygon class="st3" points="1361.7,-264.9 532.1,-1094.5 532.1,-596.6 858.7,-264.9 			"/>
			
				<linearGradient id="SVGID_10_" gradientUnits="userSpaceOnUse" x1="265.3386" y1="35.8529" x2="144.1927" y2="201.4225" gradientTransform="matrix(6.123234e-17 1 1 -6.123234e-17 307.9621 -240.782)">
				<stop  offset="0.1905" style="stop-color:#000000;stop-opacity:0"/>
				<stop  offset="0.669" style="stop-color:#060606;stop-opacity:0.4824"/>
				<stop  offset="0.6946" style="stop-color:#0D0C0C;stop-opacity:0.5223"/>
				<stop  offset="0.7703" style="stop-color:#1C1A1A;stop-opacity:0.6408"/>
				<stop  offset="0.8603" style="stop-color:#242223;stop-opacity:0.7815"/>
				<stop  offset="1" style="stop-color:#272425"/>
			</linearGradient>
			<polygon class="st4" points="-20.2,-466.7 822.2,395 822.6,570.1 -209.3,-466.7 			"/>
			<g class="st5">
				
					<linearGradient id="SVGID_11_" gradientUnits="userSpaceOnUse" x1="61.0318" y1="276.3796" x2="-427.3376" y2="927.0086" gradientTransform="matrix(6.123234e-17 1 -1 6.123234e-17 944.1783 -194.1783)">
					<stop  offset="0.1905" style="stop-color:#000000;stop-opacity:0"/>
					<stop  offset="0.669" style="stop-color:#060606;stop-opacity:0.57"/>
					<stop  offset="0.6946" style="stop-color:#0D0C0C;stop-opacity:0.6032"/>
					<stop  offset="0.7703" style="stop-color:#1C1A1A;stop-opacity:0.7016"/>
					<stop  offset="0.8603" style="stop-color:#242223;stop-opacity:0.8185"/>
					<stop  offset="1" style="stop-color:#272425"/>
				</linearGradient>
				<polygon class="st6" points="268.8,-599 882.5,10 882.5,194.4 63.9,-599 				"/>
			</g>
			<g class="st5">
				
					<linearGradient id="SVGID_12_" gradientUnits="userSpaceOnUse" x1="433.7263" y1="801.4429" x2="-253.4908" y2="920.2213" gradientTransform="matrix(6.123234e-17 1 -1 6.123234e-17 944.1783 -194.1783)">
					<stop  offset="0.1905" style="stop-color:#000000;stop-opacity:0"/>
					<stop  offset="0.669" style="stop-color:#060606;stop-opacity:0.57"/>
					<stop  offset="0.6946" style="stop-color:#0D0C0C;stop-opacity:0.6032"/>
					<stop  offset="0.7703" style="stop-color:#1C1A1A;stop-opacity:0.7016"/>
					<stop  offset="0.8603" style="stop-color:#242223;stop-opacity:0.8185"/>
					<stop  offset="1" style="stop-color:#272425"/>
				</linearGradient>
				<polygon class="st7" points="-93.7,-250.4 520,358.6 520,543 -298.6,-250.4 				"/>
			</g>
			<g class="st5">
				<g class="st8">
					
						<linearGradient id="SVGID_13_" gradientUnits="userSpaceOnUse" x1="362.6489" y1="1175.1632" x2="948.0566" y2="551.5775" gradientTransform="matrix(-6.123234e-17 -1 1 -6.123234e-17 30.0356 586.6785)">
						<stop  offset="0" style="stop-color:#FFFFFF"/>
						<stop  offset="1" style="stop-color:#FFFFFF;stop-opacity:0"/>
					</linearGradient>
					<path class="st9" d="M1118.2,98.7c0,15.4-5.9,30.8-17.6,42.6c-23.5,23.5-61.6,23.5-85.2,0L593.2-280.9
						c-23.5-23.5-23.5-61.6,0-85.2c23.5-23.5,61.6-23.5,85.2,0l422.2,422.2C1112.3,67.9,1118.2,83.3,1118.2,98.7z"/>
				</g>
				<g>
					
						<linearGradient id="SVGID_14_" gradientUnits="userSpaceOnUse" x1="-400.3953" y1="1071.5854" x2="185.0125" y2="447.9998" gradientTransform="matrix(-6.123234e-17 -1 1 -6.123234e-17 30.0356 586.6785)">
						<stop  offset="0" style="stop-color:#FFFFFF"/>
						<stop  offset="1" style="stop-color:#FFFFFF;stop-opacity:0"/>
					</linearGradient>
					<path class="st10" d="M1014.6,861.8c0,15.4-5.9,30.8-17.6,42.6c-23.5,23.5-61.6,23.5-85.2,0L489.6,482.1
						c-23.5-23.5-23.5-61.6,0-85.2c23.5-23.5,61.6-23.5,85.2,0L997,819.2C1008.7,830.9,1014.6,846.4,1014.6,861.8z"/>
				</g>
				<g>
					
						<linearGradient id="SVGID_15_" gradientUnits="userSpaceOnUse" x1="-246.0142" y1="1250.9626" x2="339.3936" y2="627.377" gradientTransform="matrix(-6.123234e-17 -1 1 -6.123234e-17 30.0356 586.6785)">
						<stop  offset="0" style="stop-color:#FFFFFF"/>
						<stop  offset="1" style="stop-color:#FFFFFF;stop-opacity:0"/>
					</linearGradient>
					<path class="st11" d="M1194,707.4c0,15.4-5.9,30.8-17.6,42.6c-23.5,23.5-61.6,23.5-85.2,0L669,327.8
						c-23.5-23.5-23.5-61.6,0-85.2c23.5-23.5,61.6-23.5,85.2,0l422.2,422.2C1188.1,676.6,1194,692,1194,707.4z"/>
				</g>
				<g class="st12">
					
						<linearGradient id="SVGID_16_" gradientUnits="userSpaceOnUse" x1="654.3502" y1="378.7121" x2="1239.7579" y2="-244.8736" gradientTransform="matrix(-6.123234e-17 -1 1 -6.123234e-17 30.0356 586.6785)">
						<stop  offset="0" style="stop-color:#FFFFFF"/>
						<stop  offset="1" style="stop-color:#FFFFFF;stop-opacity:0"/>
					</linearGradient>
					<path class="st13" d="M321.7-193c0,15.4-5.9,30.8-17.6,42.6c-23.5,23.5-61.6,23.5-85.2,0l-422.2-422.2
						c-23.5-23.5-23.5-61.6,0-85.2c23.5-23.5,61.6-23.5,85.2,0l422.2,422.2C315.8-223.8,321.7-208.4,321.7-193z"/>
				</g>
				<g>
					
						<linearGradient id="SVGID_17_" gradientUnits="userSpaceOnUse" x1="-411.0588" y1="306.8324" x2="174.3492" y2="-316.7535" gradientTransform="matrix(-6.123234e-17 -1 1 -6.123234e-17 30.0356 586.6785)">
						<stop  offset="0" style="stop-color:#FFFFFF"/>
						<stop  offset="1" style="stop-color:#FFFFFF;stop-opacity:0"/>
					</linearGradient>
					<path class="st14" d="M249.8,872.4c0,15.4-5.9,30.8-17.6,42.6c-23.5,23.5-61.6,23.5-85.2,0l-422.2-422.2
						c-23.5-23.5-23.5-61.6,0-85.2c23.5-23.5,61.6-23.5,85.2,0l422.2,422.2C244,841.6,249.8,857,249.8,872.4z"/>
				</g>
				<g class="st15">
					
						<linearGradient id="SVGID_18_" gradientUnits="userSpaceOnUse" x1="-372.7818" y1="745.1018" x2="212.6259" y2="121.5162" gradientTransform="matrix(-6.123234e-17 -1 1 -6.123234e-17 30.0356 586.6785)">
						<stop  offset="0" style="stop-color:#FFFFFF;stop-opacity:0"/>
						<stop  offset="1" style="stop-color:#FFFFFF"/>
					</linearGradient>
					<path class="st16" d="M688.1,834.2c0,15.4-5.9,30.8-17.6,42.6c-23.5,23.5-61.6,23.5-85.2,0L163.1,454.5
						c-23.5-23.5-23.5-61.6,0-85.2c23.5-23.5,61.6-23.5,85.2,0l422.2,422.2C682.2,803.3,688.1,818.7,688.1,834.2z"/>
				</g>
			</g>
		</g>
	</g>
</g>
</svg>
