<?xml version="1.0" encoding="utf-8"?>
<!-- Generator: Adobe Illustrator 24.1.1, SVG Export Plug-In . SVG Version: 6.00 Build 0)  -->
<svg version="1.1" id="Capa_1" xmlns="http://www.w3.org/2000/svg" xmlns:xlink="http://www.w3.org/1999/xlink" x="0px" y="0px"
	 viewBox="0 0 160.8 149.7" style="enable-background:new 0 0 160.8 149.7;" xml:space="preserve">
<style type="text/css">
	.st0{fill:#7D8035;}
	.st1{fill:#695C21;}
	.st2{fill:#005CB9;}
	.st3{fill:#E1251B;}
	.st4{fill:#FFCD00;}
	.st5{fill:#FF8300;}
	.st6{fill:#4197CB;}
	.st7{fill:#FFFFFF;}
</style>
<g>
	<path class="st0" d="M100.7,77c-3.8-2-2.6-11.9,2.8-22.1c5.4-10.1,12.9-16.7,16.7-14.6c3.8,2,2.6,11.9-2.8,22.1
		S104.6,79.1,100.7,77z"/>
	<path class="st1" d="M100.8,58.4c-7,10.5-7.7,26.5,6.1,20.1c-0.6,8-8.7,17.7-19.3,20.7C82,78.4,90.3,62.1,100.8,58.4z"/>
	<path class="st2" d="M49.9,61.8l1.2-2.3c0.6-1.3,1.2-2.1,1.9-3.1c7.3,1,13.4,4,16,9.3c-1.1,0.8-2.1,1.6-3.1,2.4l-3.2,3
		C58.8,64,55.7,62.6,49.9,61.8L49.9,61.8z"/>
	<path class="st2" d="M60,73.6L58.4,76c-3.9-0.7-11.1-2.3-11.1-2.3c-0.4-2.2,0-4.6,0.6-6.6l0.7-2.1C54.3,65.2,58.3,69.7,60,73.6z"/>
	<path class="st0" d="M82.3,90.1c-2.8-4.1-5.6-6.9-8.3-8.8c2.4-11,13.4-22.3,23.7-25.6c-11.4,3.2-24.8,13-28.6,22.8
		c-4-1.7-5.1-1.6-6.9-1.7c7.9-11.2,26.4-19.5,35.4-21.1h0.1c0.9-0.2,1.7-0.2,2.3-0.3C87.3,61.3,81.1,72,82.3,90.1z"/>
	<path class="st3" d="M85.2,101.6c-8.3,2.4-24.5-0.2-31.5-8.9c0,0,3.3-9.4,5.7-12.9C72.2,80,84.5,96.3,85.2,101.6z"/>
	<path class="st3" d="M47.1,77.2c0,0,9,1.3,9.3,1.7c-2.4,3.4-5.1,10.6-5.1,10.7c-1.8-2.3-2.1-3.4-3.1-6.3
		C47.5,80.8,47.2,79.6,47.1,77.2z"/>
	<path class="st4" d="M81.3,40.3c0.3-17.8,3.7-32,6.5-32.4c3-0.5,6.1,16.6,6.3,36.7C90.6,42.8,85.8,40.5,81.3,40.3z"/>
	<path class="st5" d="M63.8,43.1c-6.8-19-9-33.5-5.4-34.9c3.6-1.4,12.5,13.1,20,31.9C75.6,40.4,69.3,40.4,63.8,43.1z"/>
	<path class="st6" d="M50.7,54.6c-1.4-4.2-11.6-31.6-8.5-33c3.2-1.4,11.4,7.4,19.3,22.5C56.9,46.5,53.5,51,50.7,54.6z"/>
	<path class="st2" d="M44.4,70.6c-2.3-4.4-15.8-32-13.2-33.4c2.5-1.3,10.3,7.7,17.7,18.9C45.8,60.2,44.8,66.4,44.4,70.6z"/>
	<path class="st6" d="M54.5,54.4c9-10,25.5-17,43.9-1.1c-9,1.2-17.4,5.1-25.4,9.9C69.5,57,62.5,54.2,54.5,54.4z"/>
	<g>
		<g>
			<g>
				<path class="st7" d="M15.5,127.9H10v-18.2c0-0.3-0.3-0.6-0.6-0.6H5.3c-0.4,0-0.6,0.3-0.6,0.6v22.5c0,0.3,0.3,0.6,0.6,0.6h12.8
					c0.4,0,0.6-0.3,0.6-0.6v-1.1C17.5,130.3,16.4,129.2,15.5,127.9z"/>
				<path class="st7" d="M36.1,126.9c0.2-0.4,0.6-0.4,0.9-0.3c0.7-1.5,1.2-3.1,1.3-4.9c-2.2-1.4-4-3.2-4-6.1c0-1,0.2-2,0.7-2.9
					c-2.2-2.4-5.4-3.9-8.9-3.9c-6.8,0-12.2,5.5-12.2,12.3c0,2.6,0.8,4.9,2.1,6.9c0.9,1.3,2,2.4,3.3,3.3c2,1.3,4.3,2.1,6.8,2.1
					c3.2,0,6.1-1.2,8.3-3.2c0-0.1,0-0.3,0.1-0.4L36.1,126.9z M26.1,127.8c-3.7,0-6.8-3.1-6.8-6.8c0-3.7,3.1-6.8,6.8-6.8
					s6.8,3.1,6.8,6.8C32.9,124.7,29.8,127.8,26.1,127.8z"/>
				<path class="st7" d="M46.7,132l3.8-8.1c-1-3-4.1-4.3-6.5-5.5s-3.7-2-3.7-3.2c0-1,0.6-1.9,2.1-1.9c1.8,0,3.8,1.3,4.6,1.8
					c0.7,0.4,1.3,0.1,1.5-0.2l1.7-2.6c0.1-0.2,0.2-0.9-0.2-1.1c-1-0.7-3.7-2.6-7.3-2.6c-3.7,0-6.1,1.7-7.2,3.9
					c-0.5,0.9-0.7,1.9-0.7,2.9c0,3,1.8,4.8,4,6.1c0.8,0.5,1.7,1,2.6,1.4c2.2,1.1,3.5,2,3.5,3.4c0,1.2-1,2-2.3,2
					c-2.1,0-3.9-1.2-4.8-1.9c-0.1,0-0.1-0.1-0.2-0.1c-0.3-0.1-0.7-0.1-1,0.3l-1.6,2.8c-0.1,0.2-0.1,0.3-0.1,0.4
					c0,0.2,0.1,0.4,0.3,0.6c0.8,0.8,3.2,2.6,7.7,2.6c1.5,0,2.8-0.3,3.9-0.8C46.6,132.3,46.7,132.2,46.7,132z"/>
				<path class="st7" d="M55.1,108.6c0.2,0.3,0.5,0.6,0.9,0.3l6.2-2.8c0.3-0.2,0.5-0.5,0.2-1l-1.2-2c-0.2-0.3-0.7-0.2-0.9-0.1
					l-5.8,3.5c-0.2,0.1-0.3,0.4-0.2,0.6L55.1,108.6z"/>
				<path class="st7" d="M66,132.3v-9.1l-6.5-14c-0.1-0.2-0.3-0.4-0.6-0.4h-0.3c-0.2,0-0.5,0.2-0.6,0.4L51.1,124l-3.8,8.1
					c-0.1,0.1-0.1,0.3,0,0.4c0,0.3,0.3,0.5,0.6,0.5h3.7c0.7,0,1.1-0.4,1.2-0.8l1.2-2.7h9.3l1.2,2.7c0.3,0.6,0.6,0.9,1.2,0.9h0.9
					C66.3,132.9,66,132.6,66,132.3z M56.1,124.7l2.6-5.6l0,0l2.6,5.6H56.1z"/>
				<path class="st7" d="M86.9,113.2v-3.5c0-0.3-0.3-0.6-0.6-0.6h-4.1c-0.4,0-0.6,0.3-0.6,0.6v12.1l0,0l-13.1-12.6
					c-0.3-0.3-0.5-0.5-0.9-0.5h-0.5c-0.3,0-0.6,0.3-0.6,0.6v13.8v9.1c0,0.3,0.3,0.6,0.6,0.6H70h1.2c0.4,0,0.6-0.3,0.6-0.6v-12.7l0,0
					L85,132.8c0.3,0.3,0.5,0.4,0.9,0.4h0.3c0.3,0,0.6-0.2,0.6-0.6v-3.8c-1.7-2.1-2.8-4.8-2.8-7.8S85.2,115.3,86.9,113.2z"/>
				<path class="st7" d="M98.1,120.7c-0.4,0-0.6,0.3-0.6,0.6v3.4c0,0.3,0.3,0.6,0.6,0.6h2.1v2c-1,0.4-2,0.5-3,0.5
					c-3.7,0-6.7-3.1-6.7-6.8c0-3.7,3-6.9,6.7-6.9c1.7,0,3.2,0.4,4.5,1.6c0.3,0.2,0.6,0.2,0.9,0l0.8-0.8v-4.3c-2-1.2-4.3-1.9-6.5-1.9
					c-3.8,0-7.2,1.7-9.4,4.4c-1.7,2.1-2.8,4.8-2.8,7.8s1,5.7,2.8,7.8c2.2,2.7,5.6,4.4,9.4,4.4c2.7,0,5-0.7,6.5-1.3v-11.3h-5.3V120.7
					z"/>
				<path class="st7" d="M116.7,132.3v-4.4h-7.6v-4.6h7.6v-5h-7.6v-4.2h7.6v-4.4c0-0.3,0.3-0.6,0.6-0.6h-12.9
					c-0.4,0-0.6,0.3-0.6,0.6v0.9v4.3v5.7V132v0.3c0,0.3,0.3,0.6,0.6,0.6h12.9C116.9,132.9,116.7,132.6,116.7,132.3z"/>
				<path class="st7" d="M127.7,132.3v-4.4h-5.2v-18.2c0-0.3-0.3-0.6-0.6-0.6H119h-1.2c-0.4,0-0.6,0.3-0.6,0.6v4.4v4.2v5v4.6v4.4
					c0,0.3,0.3,0.6,0.6,0.6h1.2h9.3C128,132.9,127.7,132.6,127.7,132.3z"/>
				<path class="st7" d="M140,129.6l1-1.7h-7.5v-4.6h7.8c0.3,0,0.6-0.3,0.6-0.6v-2.4c-0.6-0.6-1.1-1.2-1.5-1.9h-7v-4.2h6.5
					c0.4-1.8,1.6-3.5,3.6-4.5c0-0.3-0.3-0.5-0.6-0.5h-14.1c-0.4,0-0.6,0.3-0.6,0.6V128v4.4c0,0.3,0.3,0.6,0.6,0.6h2.2h11.9
					c0.3,0,0.5-0.1,0.6-0.3c-1.8-0.6-2.9-1.5-3.3-1.9C139.9,130.4,139.8,130.1,140,129.6z"/>
				<path class="st7" d="M149.5,118.4c-2.4-1.2-3.7-2-3.7-3.2c0-1,0.6-1.9,2.1-1.9c1.8,0,3.8,1.3,4.6,1.8c0.7,0.4,1.3,0.1,1.5-0.2
					l1.7-2.6c0.1-0.2,0.2-0.9-0.2-1.1c-1-0.7-3.7-2.6-7.3-2.6c-1.6,0-3,0.3-4.1,0.9c-2,1-3.2,2.6-3.6,4.5c-0.1,0.5-0.2,0.9-0.2,1.4
					c0,1.1,0.2,2,0.6,2.8c0.4,0.7,0.9,1.4,1.5,1.9c1.2,1.2,2.9,2,4.5,2.8c2.2,1.1,3.5,2,3.5,3.4c0,1.2-1,2-2.3,2
					c-2.1,0-3.9-1.2-4.8-1.9c-0.3-0.2-0.9-0.2-1.2,0.2l-0.6,1.1l-1,1.7c-0.2,0.4-0.1,0.8,0.1,1c0.5,0.5,1.6,1.3,3.3,1.9
					c1.2,0.4,2.6,0.7,4.3,0.7c5,0,8-3.5,8-7C156.3,121.6,152.4,119.9,149.5,118.4z"/>
			</g>
		</g>
		<g>
			<path class="st7" d="M9.3,136.3c1,0,1.7,0.3,2.4,0.9c0.1,0.1,0.1,0.2,0,0.3l-0.3,0.3c-0.1,0.1-0.2,0.1-0.3,0
				c-0.5-0.4-1.2-0.7-1.9-0.7c-1.5,0-2.7,1.3-2.7,2.8s1.2,2.8,2.7,2.8c0.9,0,1.4-0.3,1.9-0.7c0.1-0.1,0.2-0.1,0.3,0l0.2,0.2
				c0.1,0.1,0.1,0.2,0,0.3c-0.6,0.6-1.5,0.9-2.3,0.9c-2,0-3.5-1.6-3.5-3.5C5.8,137.9,7.4,136.3,9.3,136.3z"/>
			<path class="st7" d="M15.3,136.3c2,0,3.5,1.6,3.5,3.5c0,2-1.6,3.5-3.5,3.5s-3.5-1.6-3.5-3.5C11.8,137.9,13.4,136.3,15.3,136.3z
				 M15.3,142.7c1.6,0,2.8-1.3,2.8-2.8s-1.3-2.8-2.8-2.8c-1.6,0-2.8,1.3-2.8,2.8S13.8,142.7,15.3,142.7z"/>
			<path class="st7" d="M19.5,136.5c0-0.1,0.1-0.2,0.2-0.2h0.1c0.1,0,0.1,0,0.2,0.1l4.3,5.4l0,0v-5.2c0-0.1,0.1-0.2,0.2-0.2h0.3
				c0.1,0,0.2,0.1,0.2,0.2v6.6c0,0.1-0.1,0.2-0.2,0.2h-0.1c-0.1,0-0.1,0-0.2-0.1l-4.4-5.5l0,0v5.3c0,0.1-0.1,0.2-0.2,0.2h-0.3
				c-0.1,0-0.2-0.1-0.2-0.2L19.5,136.5L19.5,136.5z"/>
			<path class="st7" d="M27.5,137.1h-1.7c-0.1,0-0.2-0.1-0.2-0.2v-0.3c0-0.1,0.1-0.2,0.2-0.2h4.1c0.1,0,0.2,0.1,0.2,0.2v0.3
				c0,0.1-0.1,0.2-0.2,0.2h-1.7v6c0,0.1-0.1,0.2-0.2,0.2h-0.4c-0.1,0-0.2-0.1-0.2-0.2v-6H27.5z"/>
			<path class="st7" d="M30.5,136.6c0-0.1,0.1-0.2,0.2-0.2h0.4c0.1,0,0.2,0.1,0.2,0.2v6.5c0,0.1-0.1,0.2-0.2,0.2h-0.4
				c-0.1,0-0.2-0.1-0.2-0.2V136.6z"/>
			<path class="st7" d="M35.5,136.3c1,0,1.7,0.3,2.4,0.9c0.1,0.1,0.1,0.2,0,0.3s-0.2,0.2-0.3,0.3s-0.1,0.1-0.3,0
				c-0.5-0.4-1.2-0.8-1.9-0.8c-1.5,0-2.7,1.3-2.7,2.8s1.2,2.8,2.7,2.8c1.1,0,1.8-0.4,1.8-0.4v-1.4h-1.1c-0.1,0-0.2-0.1-0.2-0.2v-0.4
				c0-0.1,0.1-0.2,0.2-0.2h1.7c0.1,0,0.2,0.1,0.2,0.2v2.2c0,0.1,0,0.1-0.1,0.2c0,0-1,0.6-2.4,0.6c-2,0-3.5-1.6-3.5-3.5
				C32,137.9,33.6,136.3,35.5,136.3z"/>
			<path class="st7" d="M42,136.3c2,0,3.5,1.6,3.5,3.5c0,2-1.6,3.5-3.5,3.5c-2,0-3.5-1.6-3.5-3.5C38.5,137.9,40,136.3,42,136.3z
				 M42,142.7c1.5,0,2.8-1.3,2.8-2.8S43.5,137,42,137c-1.6,0-2.8,1.3-2.8,2.8S40.4,142.7,42,142.7z"/>
			<path class="st7" d="M52.5,136.3c1,0,1.7,0.3,2.4,0.9c0.1,0.1,0.1,0.2,0,0.3l-0.3,0.3c-0.1,0.1-0.2,0.1-0.3,0
				c-0.5-0.4-1.2-0.7-1.9-0.7c-1.5,0-2.7,1.3-2.7,2.8s1.2,2.8,2.7,2.8c0.8,0,1.3-0.3,1.9-0.7c0.1-0.1,0.2-0.1,0.3,0l0.2,0.2
				c0.1,0.1,0.1,0.2,0,0.3c-0.6,0.6-1.5,0.9-2.3,0.9c-2,0-3.5-1.6-3.5-3.5C49,137.9,50.6,136.3,52.5,136.3z"/>
			<path class="st7" d="M58.5,136.3c1.9,0,3.5,1.6,3.5,3.5c0,2-1.6,3.5-3.5,3.5c-2,0-3.5-1.6-3.5-3.5
				C55,137.9,56.6,136.3,58.5,136.3z M58.5,142.7c1.5,0,2.8-1.3,2.8-2.8s-1.3-2.8-2.8-2.8c-1.6,0-2.8,1.3-2.8,2.8
				S57,142.7,58.5,142.7z"/>
			<path class="st7" d="M62.7,136.5c0-0.1,0.1-0.2,0.2-0.2H63c0.1,0,0.1,0,0.2,0.1l4.3,5.4l0,0v-5.2c0-0.1,0.1-0.2,0.2-0.2H68
				c0.1,0,0.2,0.1,0.2,0.2v6.6c0,0.1-0.1,0.2-0.2,0.2h-0.1c-0.1,0-0.1,0-0.2-0.1l-4.4-5.5l0,0v5.3c0,0.1-0.1,0.2-0.2,0.2h-0.3
				c-0.1,0-0.2-0.1-0.2-0.2L62.7,136.5L62.7,136.5z"/>
			<path class="st7" d="M69.1,142.3l0.1-0.2c0.1-0.1,0.2-0.2,0.3-0.1c0.1,0.1,0.8,0.7,1.7,0.7c0.8,0,1.3-0.5,1.3-1.1
				c0-0.7-0.6-1.1-1.7-1.5c-1.1-0.5-1.7-0.9-1.7-2c0-0.7,0.5-1.7,2.1-1.7c1,0,1.7,0.5,1.7,0.5c0.1,0,0.2,0.1,0.1,0.3l-0.1,0.2
				c-0.1,0.1-0.2,0.1-0.3,0.1c-0.4-0.2-0.8-0.4-1.3-0.4c-1,0-1.4,0.7-1.4,1.1c0,0.7,0.5,1,1.3,1.3c1.3,0.5,2.2,1,2.2,2.2
				c0,1-1,1.8-2.1,1.8c-1.2,0-1.9-0.7-2.1-0.8C69.1,142.5,68.9,142.4,69.1,142.3z"/>
			<path class="st7" d="M75.1,137.1h-1.7c-0.1,0-0.2-0.1-0.2-0.2v-0.3c0-0.1,0.1-0.2,0.2-0.2h4.1c0.1,0,0.2,0.1,0.2,0.2v0.3
				c0,0.1-0.1,0.2-0.2,0.2h-1.7v6c0,0.1-0.1,0.2-0.2,0.2h-0.4c-0.1,0-0.2-0.1-0.2-0.2L75.1,137.1L75.1,137.1z"/>
			<path class="st7" d="M78.2,136.6c0-0.1,0.1-0.2,0.2-0.2h2.5c1.2,0,2.1,0.9,2.1,2.1c0,0.9-0.6,1.6-1.4,2l1.3,2.5
				c0.1,0.1,0,0.3-0.2,0.3h-0.5c-0.1,0-0.2,0-0.2-0.1l-1.3-2.5H79v2.5c0,0.1-0.1,0.2-0.2,0.2h-0.4c-0.1,0-0.2-0.1-0.2-0.2
				C78.2,143.2,78.2,136.6,78.2,136.6z M80.9,140c0.8,0,1.4-0.6,1.4-1.4c0-0.7-0.7-1.4-1.4-1.4H79v2.8L80.9,140L80.9,140z"/>
			<path class="st7" d="M83.8,136.6c0-0.1,0.1-0.2,0.2-0.2h0.4c0.1,0,0.2,0.1,0.2,0.2v4.1c0,1.1,0.7,1.9,1.8,1.9
				c1.2,0,1.9-0.8,1.9-1.9v-4.1c0-0.1,0.1-0.2,0.2-0.2h0.4c0.1,0,0.2,0.1,0.2,0.2v4.2c0,1.5-1.1,2.6-2.6,2.6s-2.6-1.1-2.6-2.6
				L83.8,136.6L83.8,136.6z"/>
			<path class="st7" d="M91.5,140l-2.4-3.3c-0.1-0.1,0-0.3,0.2-0.3h0.5c0.1,0,0.1,0,0.2,0.1l2,2.7l2-2.7c0,0,0.1-0.1,0.2-0.1h0.5
				c0.2,0,0.2,0.2,0.2,0.3l-2.4,3.3v3.1c0,0.1-0.1,0.2-0.2,0.2h-0.4c-0.1,0-0.2-0.1-0.2-0.2V140H91.5z"/>
			<path class="st7" d="M94.9,136.6c0-0.1,0.1-0.2,0.2-0.2h3.8c0.1,0,0.2,0.1,0.2,0.2v0.3c0,0.1-0.1,0.2-0.2,0.2h-3.3v2.4h2.8
				c0.1,0,0.2,0.1,0.2,0.2v0.3c0,0.1-0.1,0.2-0.2,0.2h-2.8v2.5h3.3c0.1,0,0.2,0.1,0.2,0.2v0.3c0,0.1-0.1,0.2-0.2,0.2h-3.8
				c-0.1,0-0.2-0.1-0.2-0.2V136.6z"/>
			<path class="st7" d="M99.8,136.5c0-0.1,0.1-0.2,0.2-0.2h0.1c0.1,0,0.1,0,0.2,0.1l4.3,5.4l0,0v-5.2c0-0.1,0.1-0.2,0.2-0.2h0.3
				c0.1,0,0.2,0.1,0.2,0.2v6.6c0,0.1-0.1,0.2-0.2,0.2H105c-0.1,0-0.1,0-0.2-0.1l-4.4-5.5l0,0v5.3c0,0.1-0.1,0.2-0.2,0.2H100
				c-0.1,0-0.2-0.1-0.2-0.2V136.5z"/>
			<path class="st7" d="M106.5,136.6c0-0.1,0.1-0.2,0.2-0.2h2.2c1.9,0,3.4,1.5,3.4,3.4s-1.5,3.4-3.4,3.4h-2.2
				c-0.1,0-0.2-0.1-0.2-0.2V136.6z M108.8,142.6c1.6,0,2.7-1.1,2.7-2.8c0-1.6-1.1-2.7-2.7-2.7h-1.5v5.5H108.8z"/>
			<path class="st7" d="M116.1,136.3c2,0,3.5,1.6,3.5,3.5c0,2-1.6,3.5-3.5,3.5c-2,0-3.5-1.6-3.5-3.5
				C112.6,137.9,114.1,136.3,116.1,136.3z M116.1,142.7c1.6,0,2.8-1.3,2.8-2.8c0-1.6-1.3-2.8-2.8-2.8c-1.6,0-2.8,1.3-2.8,2.8
				C113.2,141.4,114.5,142.7,116.1,142.7z"/>
			<path class="st7" d="M126.6,136.3c1,0,1.7,0.3,2.4,0.9c0.1,0.1,0.1,0.2,0,0.3l-0.3,0.3c-0.1,0.1-0.2,0.1-0.3,0
				c-0.5-0.4-1.2-0.7-1.9-0.7c-1.5,0-2.7,1.3-2.7,2.8s1.2,2.8,2.7,2.8c0.9,0,1.3-0.3,1.9-0.7c0.1-0.1,0.2-0.1,0.3,0l0.2,0.2
				c0.1,0.1,0.1,0.2,0,0.3c-0.6,0.6-1.5,0.9-2.3,0.9c-2,0-3.5-1.6-3.5-3.5C123.1,137.9,124.7,136.3,126.6,136.3z"/>
			<path class="st7" d="M129.7,136.6c0-0.1,0.1-0.2,0.2-0.2h0.4c0.1,0,0.2,0.1,0.2,0.2v6.5c0,0.1-0.1,0.2-0.2,0.2h-0.4
				c-0.1,0-0.2-0.1-0.2-0.2V136.6z"/>
			<path class="st7" d="M131.5,136.6c0-0.1,0.1-0.2,0.2-0.2h0.4c0.1,0,0.2,0.1,0.2,0.2v4.1c0,1.1,0.7,1.9,1.8,1.9
				c1.2,0,1.9-0.8,1.9-1.9v-4.1c0-0.1,0.1-0.2,0.2-0.2h0.4c0.1,0,0.2,0.1,0.2,0.2v4.2c0,1.5-1.1,2.6-2.6,2.6s-2.6-1.1-2.6-2.6
				L131.5,136.6L131.5,136.6z"/>
			<path class="st7" d="M137.8,136.6c0-0.1,0.1-0.2,0.2-0.2h2.2c1.9,0,3.4,1.5,3.4,3.4s-1.5,3.4-3.4,3.4H138c-0.1,0-0.2-0.1-0.2-0.2
				V136.6z M140,142.6c1.6,0,2.7-1.1,2.7-2.8c0-1.6-1.1-2.7-2.7-2.7h-1.5v5.5H140z"/>
			<path class="st7" d="M143.3,143l3-6.6c0-0.1,0.1-0.1,0.2-0.1h0.1c0.1,0,0.1,0,0.2,0.1l2.9,6.6c0.1,0.1,0,0.3-0.2,0.3h-0.4
				c-0.1,0-0.1-0.1-0.2-0.1l-0.7-1.6h-3.5l-0.7,1.6c0,0.1-0.1,0.1-0.2,0.1h-0.4C143.3,143.3,143.2,143.2,143.3,143z M147.9,141
				c-0.5-1.1-0.9-2.1-1.4-3.2h-0.1L145,141H147.9z"/>
			<path class="st7" d="M149.9,136.6c0-0.1,0.1-0.2,0.2-0.2h2.2c1.9,0,3.4,1.5,3.4,3.4s-1.5,3.4-3.4,3.4h-2.2
				c-0.1,0-0.2-0.1-0.2-0.2V136.6z M152.2,142.6c1.6,0,2.7-1.1,2.7-2.8c0-1.6-1.1-2.7-2.7-2.7h-1.5v5.5H152.2z"/>
		</g>
	</g>
</g>
</svg>
